<?xml version="1.0" encoding="utf-8"?>
<svg viewBox="0 0 500 500" xmlns="http://www.w3.org/2000/svg" xmlns:bx="https://boxy-svg.com">
  <path d="M 131.033 212.881 L 131.033 213.691 Q 130.264 213.772 129.616 214.379 Q 128.968 214.987 128.401 216.526 L 121.759 233.941 L 121.07 233.941 L 113.618 215.999 Q 112.849 214.42 112.099 214.075 Q 111.35 213.731 110.864 213.731 L 110.864 212.881 Q 111.755 213.002 112.727 213.063 Q 113.699 213.124 114.833 213.124 Q 116.089 213.124 117.486 213.043 Q 118.883 212.962 120.098 212.881 L 120.098 213.731 Q 119.086 213.731 118.296 213.873 Q 117.506 214.015 117.304 214.723 Q 117.101 215.432 117.79 217.133 L 122.771 229.486 L 122.528 229.567 L 127.145 217.498 Q 127.672 216.161 127.57 215.371 Q 127.469 214.582 126.74 214.177 Q 126.011 213.772 124.553 213.691 L 124.553 212.881 Q 125.282 212.921 125.809 212.941 Q 126.335 212.962 126.841 212.982 Q 127.348 213.002 127.955 213.002 Q 128.887 213.002 129.636 212.962 Q 130.385 212.921 131.033 212.881 Z M 121.759 233.941 L 120.382 237.464 Q 119.977 238.477 119.551 239.165 Q 119.126 239.854 118.64 240.299 Q 117.992 240.907 117.101 241.129 Q 116.21 241.352 115.481 241.352 Q 114.712 241.352 114.084 241.069 Q 113.456 240.785 113.092 240.238 Q 112.727 239.692 112.727 238.922 Q 112.727 237.95 113.294 237.363 Q 113.861 236.776 114.874 236.776 Q 115.724 236.776 116.332 237.262 Q 116.939 237.748 116.939 238.679 Q 116.939 239.368 116.615 239.813 Q 116.291 240.259 115.846 240.502 Q 115.927 240.542 115.987 240.542 Q 116.048 240.542 116.089 240.542 Q 117.182 240.542 118.033 239.793 Q 118.883 239.044 119.531 237.383 L 120.989 233.617 Z" style="fill: rgb(51, 51, 51); white-space: pre;"/>
  <path d="M 153.221 205.064 Q 160.471 205.064 163.994 208.689 Q 167.518 212.314 167.518 219.077 Q 167.518 223.492 165.796 226.792 Q 164.075 230.093 160.795 231.916 Q 157.514 233.738 152.857 233.738 Q 152.249 233.738 151.237 233.698 Q 150.224 233.657 149.151 233.637 Q 148.078 233.617 147.187 233.617 Q 145.769 233.617 144.392 233.637 Q 143.015 233.657 142.165 233.738 L 142.165 232.928 Q 143.542 232.847 144.25 232.604 Q 144.959 232.361 145.202 231.632 Q 145.445 230.903 145.445 229.445 L 145.445 209.357 Q 145.445 207.859 145.202 207.15 Q 144.959 206.441 144.25 206.178 Q 143.542 205.915 142.165 205.874 L 142.165 205.064 Q 143.015 205.105 144.392 205.165 Q 145.769 205.226 147.106 205.186 Q 148.523 205.145 150.305 205.105 Q 152.087 205.064 153.221 205.064 Z M 152.209 205.793 Q 150.346 205.793 149.779 206.482 Q 149.212 207.17 149.212 209.276 L 149.212 229.526 Q 149.212 231.632 149.799 232.321 Q 150.386 233.009 152.249 233.009 Q 156.664 233.009 159.094 231.409 Q 161.524 229.81 162.496 226.732 Q 163.468 223.654 163.468 219.239 Q 163.468 214.703 162.394 211.726 Q 161.321 208.75 158.871 207.271 Q 156.421 205.793 152.209 205.793 Z" style="fill: rgb(51, 51, 51); white-space: pre;"/>
  <path d="M 180.761 212.314 Q 184.325 212.314 186.33 214.48 Q 188.334 216.647 188.334 221.224 L 174.038 221.224 L 173.997 220.454 L 184.446 220.454 Q 184.527 218.47 184.122 216.789 Q 183.717 215.108 182.847 214.096 Q 181.976 213.083 180.599 213.083 Q 178.736 213.083 177.298 214.946 Q 175.86 216.809 175.577 220.859 L 175.698 221.021 Q 175.617 221.629 175.577 222.358 Q 175.536 223.087 175.536 223.816 Q 175.536 226.57 176.427 228.554 Q 177.318 230.539 178.756 231.571 Q 180.194 232.604 181.733 232.604 Q 182.948 232.604 184.041 232.219 Q 185.135 231.835 186.066 230.944 Q 186.998 230.053 187.686 228.554 L 188.496 228.878 Q 188.051 230.215 187.038 231.47 Q 186.026 232.726 184.487 233.515 Q 182.948 234.305 180.923 234.305 Q 178.007 234.305 175.921 232.969 Q 173.835 231.632 172.722 229.263 Q 171.608 226.894 171.608 223.816 Q 171.608 220.252 172.742 217.68 Q 173.876 215.108 175.941 213.711 Q 178.007 212.314 180.761 212.314 Z" style="fill: rgb(51, 51, 51); white-space: pre;"/>
  <path d="M 198.661 212.314 Q 200.281 212.314 201.415 212.84 Q 202.549 213.367 203.075 213.812 Q 204.412 214.906 204.695 212.354 L 205.627 212.354 Q 205.546 213.488 205.505 215.047 Q 205.465 216.607 205.465 219.239 L 204.533 219.239 Q 204.29 217.741 203.703 216.323 Q 203.116 214.906 201.982 213.994 Q 200.848 213.083 199.025 213.083 Q 197.608 213.083 196.656 213.873 Q 195.704 214.663 195.704 216.202 Q 195.704 217.417 196.433 218.287 Q 197.162 219.158 198.337 219.907 Q 199.511 220.657 200.888 221.548 Q 202.427 222.52 203.683 223.532 Q 204.938 224.545 205.688 225.76 Q 206.437 226.975 206.437 228.635 Q 206.437 230.498 205.465 231.754 Q 204.493 233.009 202.934 233.657 Q 201.374 234.305 199.511 234.305 Q 198.62 234.305 197.831 234.163 Q 197.041 234.022 196.312 233.738 Q 195.907 233.536 195.482 233.252 Q 195.056 232.969 194.651 232.645 Q 194.246 232.321 193.922 232.665 Q 193.598 233.009 193.436 234.022 L 192.505 234.022 Q 192.586 232.726 192.626 230.863 Q 192.667 229 192.667 225.922 L 193.598 225.922 Q 193.882 228.19 194.408 229.891 Q 194.935 231.592 196.069 232.543 Q 197.203 233.495 199.228 233.495 Q 200.038 233.495 200.868 233.131 Q 201.698 232.766 202.265 231.916 Q 202.832 231.065 202.832 229.648 Q 202.832 227.866 201.536 226.732 Q 200.24 225.598 198.256 224.342 Q 196.798 223.411 195.522 222.479 Q 194.246 221.548 193.457 220.373 Q 192.667 219.199 192.667 217.538 Q 192.667 215.716 193.497 214.561 Q 194.327 213.407 195.704 212.86 Q 197.081 212.314 198.661 212.314 Z" style="fill: rgb(51, 51, 51); white-space: pre;"/>
  <path d="M 214.138 202.756 Q 215.191 202.756 215.96 203.525 Q 216.73 204.295 216.73 205.348 Q 216.73 206.401 215.96 207.17 Q 215.191 207.94 214.138 207.94 Q 213.085 207.94 212.315 207.17 Q 211.546 206.401 211.546 205.348 Q 211.546 204.295 212.315 203.525 Q 213.085 202.756 214.138 202.756 Z M 216.244 212.435 L 216.244 229.972 Q 216.244 231.673 216.953 232.28 Q 217.661 232.888 219.322 232.888 L 219.322 233.738 Q 218.633 233.698 217.236 233.637 Q 215.839 233.576 214.421 233.576 Q 213.044 233.576 211.627 233.637 Q 210.209 233.698 209.521 233.738 L 209.521 232.888 Q 211.181 232.888 211.89 232.28 Q 212.599 231.673 212.599 229.972 L 212.599 217.295 Q 212.599 215.473 211.951 214.602 Q 211.303 213.731 209.521 213.731 L 209.521 212.881 Q 210.817 213.002 212.032 213.002 Q 213.206 213.002 214.28 212.86 Q 215.353 212.719 216.244 212.435 Z" style="fill: rgb(51, 51, 51); white-space: pre;"/>
  <path d="M 228.84 241.352 Q 226.694 241.352 224.79 240.907 Q 222.887 240.461 221.732 239.509 Q 220.578 238.558 220.578 237.1 Q 220.578 235.682 221.712 234.67 Q 222.846 233.657 224.79 233.131 L 225.033 233.779 Q 224.142 234.062 223.616 234.913 Q 223.089 235.763 223.089 236.816 Q 223.089 238.679 224.81 239.671 Q 226.532 240.664 229.286 240.664 Q 231.108 240.664 232.85 240.198 Q 234.591 239.732 235.725 238.639 Q 236.859 237.545 236.859 235.763 Q 236.859 234.427 235.907 233.556 Q 234.956 232.685 232.161 232.685 L 229.164 232.685 Q 227.868 232.685 226.653 232.483 Q 225.438 232.28 224.669 231.632 Q 223.899 230.984 223.899 229.648 Q 223.899 228.271 225.033 226.995 Q 226.167 225.719 229.205 224.383 L 229.691 224.747 Q 228.314 225.476 227.301 226.225 Q 226.289 226.975 226.289 227.987 Q 226.289 229.283 228.233 229.283 L 233.295 229.283 Q 234.996 229.283 236.434 229.769 Q 237.872 230.255 238.763 231.308 Q 239.654 232.361 239.654 234.062 Q 239.654 235.966 238.439 237.626 Q 237.224 239.287 234.814 240.319 Q 232.404 241.352 228.84 241.352 Z M 229.043 225.112 Q 227.058 225.112 225.438 224.443 Q 223.818 223.775 222.887 222.358 Q 221.955 220.94 221.955 218.713 Q 221.955 216.485 222.887 215.068 Q 223.818 213.65 225.438 212.982 Q 227.058 212.314 229.043 212.314 Q 231.068 212.314 232.667 212.982 Q 234.267 213.65 235.199 215.068 Q 236.13 216.485 236.13 218.713 Q 236.13 220.94 235.199 222.358 Q 234.267 223.775 232.667 224.443 Q 231.068 225.112 229.043 225.112 Z M 229.043 224.383 Q 230.582 224.383 231.452 223.168 Q 232.323 221.953 232.323 218.713 Q 232.323 215.473 231.452 214.258 Q 230.582 213.043 229.043 213.043 Q 227.544 213.043 226.653 214.258 Q 225.762 215.473 225.762 218.713 Q 225.762 221.953 226.653 223.168 Q 227.544 224.383 229.043 224.383 Z M 234.875 215.675 L 234.146 215.392 Q 234.713 214.015 236.09 212.962 Q 237.467 211.909 238.965 211.909 Q 240.018 211.909 240.666 212.496 Q 241.314 213.083 241.314 214.258 Q 241.314 215.513 240.646 216.019 Q 239.978 216.526 239.289 216.526 Q 238.682 216.526 238.155 216.1 Q 237.629 215.675 237.548 214.744 Q 237.467 213.812 238.115 212.354 L 238.641 212.476 Q 236.94 213.124 236.211 213.832 Q 235.482 214.541 234.875 215.675 Z" style="fill: rgb(51, 51, 51); white-space: pre;"/>
  <path d="M 256.379 212.314 Q 257.918 212.314 258.951 212.719 Q 259.983 213.124 260.672 213.853 Q 261.441 214.663 261.765 215.878 Q 262.089 217.093 262.089 219.158 L 262.089 229.972 Q 262.089 231.673 262.798 232.28 Q 263.507 232.888 265.167 232.888 L 265.167 233.738 Q 264.479 233.698 263.061 233.637 Q 261.644 233.576 260.307 233.576 Q 258.971 233.576 257.695 233.637 Q 256.419 233.698 255.771 233.738 L 255.771 232.888 Q 257.229 232.888 257.837 232.28 Q 258.444 231.673 258.444 229.972 L 258.444 218.267 Q 258.444 217.012 258.242 215.959 Q 258.039 214.906 257.331 214.258 Q 256.622 213.61 255.164 213.61 Q 253.463 213.61 252.187 214.582 Q 250.911 215.554 250.203 217.234 Q 249.494 218.915 249.494 220.981 L 249.494 229.972 Q 249.494 231.673 250.101 232.28 Q 250.709 232.888 252.167 232.888 L 252.167 233.738 Q 251.519 233.698 250.243 233.637 Q 248.967 233.576 247.631 233.576 Q 246.294 233.576 244.877 233.637 Q 243.459 233.698 242.771 233.738 L 242.771 232.888 Q 244.431 232.888 245.14 232.28 Q 245.849 231.673 245.849 229.972 L 245.849 217.295 Q 245.849 215.473 245.201 214.602 Q 244.553 213.731 242.771 213.731 L 242.771 212.881 Q 244.067 213.002 245.282 213.002 Q 246.456 213.002 247.53 212.86 Q 248.603 212.719 249.494 212.435 L 249.494 217.214 Q 250.547 214.46 252.43 213.387 Q 254.313 212.314 256.379 212.314 Z" style="fill: rgb(51, 51, 51); white-space: pre;"/>
  <path d="M 7.417 186.921 Q 11.126 187.098 17.13 187.274 Q 23.135 187.451 28.962 187.451 Q 37.263 187.451 44.856 187.274 Q 52.45 187.098 55.629 187.098 Q 74.172 187.098 83.532 194.868 Q 92.892 202.639 92.892 214.824 Q 92.892 221.005 90.331 226.921 Q 87.77 232.837 81.854 237.694 Q 75.938 242.55 66.048 245.552 L 66.048 245.906 Q 80 247.672 87.859 252.528 Q 95.717 257.385 98.896 263.919 Q 102.075 270.453 102.075 277.694 Q 102.075 287.76 97.042 295.442 Q 92.009 303.124 82.472 307.539 Q 72.936 311.954 59.691 311.954 Q 55.806 311.954 48.035 311.689 Q 40.265 311.424 29.316 311.424 Q 23.135 311.424 17.13 311.513 Q 11.126 311.601 7.417 311.954 L 7.417 308.422 Q 13.422 308.069 16.512 307.009 Q 19.603 305.95 20.662 302.771 Q 21.722 299.592 21.722 293.234 L 21.722 205.641 Q 21.722 199.107 20.662 196.016 Q 19.603 192.926 16.512 191.778 Q 13.422 190.63 7.417 190.453 Z M 51.214 190.453 Q 43.09 190.453 40.618 193.455 Q 38.146 196.458 38.146 205.641 L 38.146 293.234 Q 38.146 299.415 39.205 302.594 Q 40.265 305.773 43.09 306.833 Q 45.916 307.892 51.391 307.892 Q 68.697 307.892 76.556 299.857 Q 84.415 291.822 84.415 276.987 Q 84.415 263.389 77.086 255.972 Q 69.757 248.555 52.98 248.555 L 34.79 248.555 Q 34.79 248.555 34.79 247.054 Q 34.79 245.552 34.79 245.552 L 49.978 245.552 Q 60.397 245.552 66.048 241.579 Q 71.7 237.605 73.819 230.983 Q 75.938 224.36 75.938 216.767 Q 75.938 203.698 70.199 197.076 Q 64.459 190.453 51.214 190.453 Z" style="fill: rgb(51, 51, 51); white-space: pre;"/>
  <path d="M 130.447 266.254 Q 135.112 266.254 138.83 268.295 Q 142.548 270.336 144.771 274.71 Q 146.995 279.084 146.995 286.083 Q 146.995 293.081 144.771 297.419 Q 142.548 301.756 138.83 303.797 Q 135.112 305.839 130.447 305.839 Q 125.854 305.839 122.1 303.797 Q 118.345 301.756 116.122 297.419 Q 113.898 293.081 113.898 286.083 Q 113.898 279.084 116.122 274.71 Q 118.345 270.336 122.1 268.295 Q 125.854 266.254 130.447 266.254 Z M 130.447 267.712 Q 126.291 267.712 123.63 272.013 Q 120.97 276.314 120.97 286.083 Q 120.97 295.851 123.63 300.116 Q 126.291 304.381 130.447 304.381 Q 134.602 304.381 137.263 300.116 Q 139.924 295.851 139.924 286.083 Q 139.924 276.314 137.263 272.013 Q 134.602 267.712 130.447 267.712 Z" style="fill: rgb(51, 51, 51); white-space: pre;"/>
  <path d="M 170.392 266.254 Q 175.058 266.254 178.775 268.295 Q 182.493 270.336 184.717 274.71 Q 186.94 279.084 186.94 286.083 Q 186.94 293.081 184.717 297.419 Q 182.493 301.756 178.775 303.797 Q 175.058 305.839 170.392 305.839 Q 165.799 305.839 162.045 303.797 Q 158.291 301.756 156.067 297.419 Q 153.844 293.081 153.844 286.083 Q 153.844 279.084 156.067 274.71 Q 158.291 270.336 162.045 268.295 Q 165.799 266.254 170.392 266.254 Z M 170.392 267.712 Q 166.237 267.712 163.576 272.013 Q 160.915 276.314 160.915 286.083 Q 160.915 295.851 163.576 300.116 Q 166.237 304.381 170.392 304.381 Q 174.547 304.381 177.208 300.116 Q 179.869 295.851 179.869 286.083 Q 179.869 276.314 177.208 272.013 Q 174.547 267.712 170.392 267.712 Z" style="fill: rgb(51, 51, 51); white-space: pre;"/>
  <path d="M 203.195 247.664 L 203.195 298.038 Q 203.195 301.1 204.289 302.194 Q 205.382 303.287 208.007 303.287 L 208.007 304.818 Q 206.84 304.745 204.544 304.636 Q 202.248 304.526 199.915 304.526 Q 197.436 304.526 194.885 304.636 Q 192.333 304.745 191.094 304.818 L 191.094 303.287 Q 194.083 303.287 195.359 302.194 Q 196.634 301.1 196.634 298.038 L 196.634 256.412 Q 196.634 253.132 195.468 251.565 Q 194.302 249.997 191.094 249.997 L 191.094 248.466 Q 193.427 248.685 195.614 248.685 Q 197.728 248.685 199.66 248.43 Q 201.592 248.175 203.195 247.664 Z M 226.378 267.274 L 226.378 268.732 Q 224.555 268.878 222.951 269.717 Q 221.348 270.555 219.817 272.159 L 209.538 282.948 L 210.558 280.907 L 224.118 299.496 Q 225.357 301.173 226.487 302.121 Q 227.617 303.068 229.221 303.287 L 229.221 304.818 Q 228.419 304.745 226.706 304.636 Q 224.993 304.526 223.316 304.526 Q 221.056 304.526 218.723 304.636 Q 216.39 304.745 215.224 304.818 L 215.224 303.287 Q 216.682 303.287 217.265 302.558 Q 217.848 301.829 217.046 300.808 L 208.663 288.561 Q 207.278 286.593 206.148 286.01 Q 205.018 285.427 202.904 285.354 L 202.904 283.896 Q 205.237 283.604 206.695 282.912 Q 208.153 282.219 209.465 280.834 L 214.859 275.221 Q 217.192 272.815 217.192 271.393 Q 217.192 269.972 215.698 269.352 Q 214.203 268.732 211.798 268.732 L 211.798 267.274 Q 213.693 267.347 216.062 267.457 Q 218.432 267.566 220.035 267.566 Q 221.275 267.566 222.441 267.53 Q 223.607 267.493 224.628 267.42 Q 225.649 267.347 226.378 267.274 Z" style="fill: rgb(51, 51, 51); white-space: pre;"/>
  <path d="M 241.102 247.664 L 241.102 298.038 Q 241.102 301.1 242.195 302.194 Q 243.289 303.287 245.913 303.287 L 245.913 304.818 Q 244.747 304.745 242.45 304.636 Q 240.154 304.526 237.821 304.526 Q 235.343 304.526 232.791 304.636 Q 230.24 304.745 229 304.818 L 229 303.287 Q 231.989 303.287 233.265 302.194 Q 234.541 301.1 234.541 298.038 L 234.541 256.412 Q 234.541 253.132 233.374 251.565 Q 232.208 249.997 229 249.997 L 229 248.466 Q 231.333 248.685 233.52 248.685 Q 235.634 248.685 237.566 248.43 Q 239.498 248.175 241.102 247.664 Z M 264.284 267.274 L 264.284 268.732 Q 262.461 268.878 260.858 269.717 Q 259.254 270.555 257.723 272.159 L 247.444 282.948 L 248.465 280.907 L 262.024 299.496 Q 263.263 301.173 264.393 302.121 Q 265.523 303.068 267.127 303.287 L 267.127 304.818 Q 266.325 304.745 264.612 304.636 Q 262.899 304.526 261.222 304.526 Q 258.962 304.526 256.629 304.636 Q 254.297 304.745 253.13 304.818 L 253.13 303.287 Q 254.588 303.287 255.171 302.558 Q 255.755 301.829 254.953 300.808 L 246.569 288.561 Q 245.184 286.593 244.054 286.01 Q 242.924 285.427 240.81 285.354 L 240.81 283.896 Q 243.143 283.604 244.601 282.912 Q 246.059 282.219 247.371 280.834 L 252.766 275.221 Q 255.099 272.815 255.099 271.393 Q 255.099 269.972 253.604 269.352 Q 252.11 268.732 249.704 268.732 L 249.704 267.274 Q 251.599 267.347 253.969 267.457 Q 256.338 267.566 257.942 267.566 Q 259.181 267.566 260.347 267.53 Q 261.514 267.493 262.534 267.42 Q 263.555 267.347 264.284 267.274 Z" style="fill: rgb(51, 51, 51); white-space: pre;"/>
  <path d="M 285.426 266.254 Q 291.841 266.254 295.45 270.154 Q 299.058 274.054 299.058 282.292 L 273.324 282.292 L 273.251 280.907 L 292.06 280.907 Q 292.205 277.335 291.476 274.309 Q 290.747 271.284 289.18 269.461 Q 287.613 267.639 285.134 267.639 Q 281.781 267.639 279.193 270.992 Q 276.605 274.346 276.095 281.636 L 276.313 281.927 Q 276.167 283.021 276.095 284.333 Q 276.022 285.645 276.022 286.957 Q 276.022 291.915 277.625 295.487 Q 279.229 299.059 281.817 300.918 Q 284.405 302.777 287.175 302.777 Q 289.362 302.777 291.331 302.084 Q 293.299 301.392 294.976 299.788 Q 296.652 298.184 297.892 295.487 L 299.35 296.07 Q 298.548 298.476 296.725 300.736 Q 294.903 302.995 292.133 304.417 Q 289.362 305.839 285.717 305.839 Q 280.469 305.839 276.714 303.433 Q 272.96 301.027 270.955 296.763 Q 268.95 292.498 268.95 286.957 Q 268.95 280.542 270.992 275.913 Q 273.033 271.284 276.751 268.769 Q 280.469 266.254 285.426 266.254 Z" style="fill: rgb(51, 51, 51); white-space: pre;"/>
  <path d="M 322.316 266.254 Q 328.732 266.254 332.34 270.154 Q 335.949 274.054 335.949 282.292 L 310.215 282.292 L 310.142 280.907 L 328.95 280.907 Q 329.096 277.335 328.367 274.309 Q 327.638 271.284 326.071 269.461 Q 324.503 267.639 322.025 267.639 Q 318.671 267.639 316.083 270.992 Q 313.496 274.346 312.985 281.636 L 313.204 281.927 Q 313.058 283.021 312.985 284.333 Q 312.912 285.645 312.912 286.957 Q 312.912 291.915 314.516 295.487 Q 316.12 299.059 318.708 300.918 Q 321.296 302.777 324.066 302.777 Q 326.253 302.777 328.221 302.084 Q 330.19 301.392 331.866 299.788 Q 333.543 298.184 334.782 295.487 L 336.24 296.07 Q 335.438 298.476 333.616 300.736 Q 331.793 302.995 329.023 304.417 Q 326.253 305.839 322.608 305.839 Q 317.359 305.839 313.605 303.433 Q 309.851 301.027 307.846 296.763 Q 305.841 292.498 305.841 286.957 Q 305.841 280.542 307.882 275.913 Q 309.923 271.284 313.641 268.769 Q 317.359 266.254 322.316 266.254 Z" style="fill: rgb(51, 51, 51); white-space: pre;"/>
  <path d="M 353.076 266.473 L 353.076 311.233 Q 353.076 314.368 354.935 315.425 Q 356.794 316.482 360.074 316.482 L 360.074 318.013 Q 358.47 317.94 355.627 317.831 Q 352.784 317.721 349.576 317.721 Q 347.317 317.721 345.093 317.831 Q 342.87 317.94 341.703 318.013 L 341.703 316.482 Q 344.328 316.482 345.421 315.534 Q 346.515 314.587 346.515 311.962 L 346.515 275.221 Q 346.515 271.94 345.348 270.373 Q 344.182 268.805 340.974 268.805 L 340.974 267.274 Q 343.307 267.493 345.494 267.493 Q 347.608 267.493 349.54 267.238 Q 351.472 266.983 353.076 266.473 Z M 364.74 266.254 Q 368.603 266.254 371.665 268.332 Q 374.727 270.409 376.513 274.419 Q 378.299 278.428 378.299 284.333 Q 378.299 288.27 377.351 292.097 Q 376.404 295.924 374.399 299.022 Q 372.394 302.121 369.223 303.98 Q 366.052 305.839 361.605 305.839 Q 358.179 305.839 355.664 304.235 Q 353.149 302.631 352.274 300.371 L 353.003 299.35 Q 354.023 301.392 355.955 302.777 Q 357.887 304.162 360.803 304.162 Q 364.885 304.162 367.145 301.61 Q 369.405 299.059 370.316 294.794 Q 371.228 290.53 371.228 285.354 Q 371.228 279.522 370.28 275.804 Q 369.332 272.086 367.437 270.263 Q 365.542 268.441 362.771 268.441 Q 359.199 268.441 356.283 271.393 Q 353.367 274.346 352.565 280.324 L 351.691 279.303 Q 352.492 273.106 356.101 269.68 Q 359.71 266.254 364.74 266.254 Z" style="fill: rgb(51, 51, 51); white-space: pre;"/>
  <path d="M 392.154 249.049 Q 394.05 249.049 395.435 250.435 Q 396.82 251.82 396.82 253.715 Q 396.82 255.61 395.435 256.996 Q 394.05 258.381 392.154 258.381 Q 390.259 258.381 388.874 256.996 Q 387.489 255.61 387.489 253.715 Q 387.489 251.82 388.874 250.435 Q 390.259 249.049 392.154 249.049 Z M 395.945 266.473 L 395.945 298.038 Q 395.945 301.1 397.221 302.194 Q 398.497 303.287 401.486 303.287 L 401.486 304.818 Q 400.246 304.745 397.731 304.636 Q 395.216 304.526 392.665 304.526 Q 390.186 304.526 387.635 304.636 Q 385.083 304.745 383.844 304.818 L 383.844 303.287 Q 386.833 303.287 388.109 302.194 Q 389.384 301.1 389.384 298.038 L 389.384 275.221 Q 389.384 271.94 388.218 270.373 Q 387.051 268.805 383.844 268.805 L 383.844 267.274 Q 386.177 267.493 388.364 267.493 Q 390.478 267.493 392.41 267.238 Q 394.341 266.983 395.945 266.473 Z" style="fill: rgb(51, 51, 51); white-space: pre;"/>
  <path d="M 429.698 266.254 Q 432.468 266.254 434.327 266.983 Q 436.186 267.712 437.425 269.024 Q 438.81 270.482 439.393 272.669 Q 439.977 274.856 439.977 278.574 L 439.977 298.038 Q 439.977 301.1 441.252 302.194 Q 442.528 303.287 445.517 303.287 L 445.517 304.818 Q 444.278 304.745 441.726 304.636 Q 439.175 304.526 436.769 304.526 Q 434.363 304.526 432.067 304.636 Q 429.771 304.745 428.604 304.818 L 428.604 303.287 Q 431.229 303.287 432.322 302.194 Q 433.416 301.1 433.416 298.038 L 433.416 276.97 Q 433.416 274.71 433.051 272.815 Q 432.687 270.919 431.411 269.753 Q 430.135 268.587 427.511 268.587 Q 424.449 268.587 422.153 270.336 Q 419.856 272.086 418.58 275.111 Q 417.305 278.137 417.305 281.854 L 417.305 298.038 Q 417.305 301.1 418.398 302.194 Q 419.492 303.287 422.116 303.287 L 422.116 304.818 Q 420.95 304.745 418.653 304.636 Q 416.357 304.526 413.951 304.526 Q 411.546 304.526 408.994 304.636 Q 406.443 304.745 405.203 304.818 L 405.203 303.287 Q 408.192 303.287 409.468 302.194 Q 410.744 301.1 410.744 298.038 L 410.744 275.221 Q 410.744 271.94 409.577 270.373 Q 408.411 268.805 405.203 268.805 L 405.203 267.274 Q 407.536 267.493 409.723 267.493 Q 411.837 267.493 413.769 267.238 Q 415.701 266.983 417.305 266.473 L 417.305 275.075 Q 419.2 270.118 422.59 268.186 Q 425.98 266.254 429.698 266.254 Z" style="fill: rgb(51, 51, 51); white-space: pre;"/>
  <path d="M 461.406 318.523 Q 457.542 318.523 454.116 317.721 Q 450.69 316.919 448.612 315.206 Q 446.534 313.493 446.534 310.869 Q 446.534 308.317 448.576 306.495 Q 450.617 304.672 454.116 303.724 L 454.553 304.891 Q 452.95 305.401 452.002 306.932 Q 451.054 308.463 451.054 310.358 Q 451.054 313.712 454.152 315.498 Q 457.251 317.284 462.208 317.284 Q 465.488 317.284 468.623 316.446 Q 471.758 315.607 473.799 313.639 Q 475.84 311.671 475.84 308.463 Q 475.84 306.057 474.127 304.49 Q 472.414 302.923 467.384 302.923 L 461.989 302.923 Q 459.656 302.923 457.469 302.558 Q 455.282 302.194 453.897 301.027 Q 452.512 299.861 452.512 297.455 Q 452.512 294.976 454.553 292.68 Q 456.595 290.384 462.062 287.978 L 462.937 288.634 Q 460.458 289.946 458.636 291.295 Q 456.813 292.644 456.813 294.466 Q 456.813 296.799 460.312 296.799 L 469.425 296.799 Q 472.487 296.799 475.075 297.674 Q 477.663 298.549 479.266 300.444 Q 480.87 302.339 480.87 305.401 Q 480.87 308.827 478.683 311.816 Q 476.496 314.805 472.159 316.664 Q 467.821 318.523 461.406 318.523 Z M 461.77 289.29 Q 458.198 289.29 455.282 288.087 Q 452.366 286.885 450.69 284.333 Q 449.013 281.782 449.013 277.772 Q 449.013 273.763 450.69 271.211 Q 452.366 268.66 455.282 267.457 Q 458.198 266.254 461.77 266.254 Q 465.415 266.254 468.295 267.457 Q 471.175 268.66 472.851 271.211 Q 474.528 273.763 474.528 277.772 Q 474.528 281.782 472.851 284.333 Q 471.175 286.885 468.295 288.087 Q 465.415 289.29 461.77 289.29 Z M 461.77 287.978 Q 464.541 287.978 466.108 285.791 Q 467.675 283.604 467.675 277.772 Q 467.675 271.94 466.108 269.753 Q 464.541 267.566 461.77 267.566 Q 459.073 267.566 457.469 269.753 Q 455.866 271.94 455.866 277.772 Q 455.866 283.604 457.469 285.791 Q 459.073 287.978 461.77 287.978 Z M 472.268 272.305 L 470.956 271.794 Q 471.976 269.316 474.455 267.42 Q 476.934 265.525 479.631 265.525 Q 481.526 265.525 482.693 266.582 Q 483.859 267.639 483.859 269.753 Q 483.859 272.013 482.656 272.924 Q 481.453 273.835 480.214 273.835 Q 479.121 273.835 478.173 273.07 Q 477.225 272.305 477.079 270.628 Q 476.934 268.951 478.1 266.327 L 479.048 266.545 Q 475.986 267.712 474.674 268.988 Q 473.362 270.263 472.268 272.305 Z" style="fill: rgb(51, 51, 51); white-space: pre;"/>
  <path d="M 414.284 56.591 L 419.596 80.539 L 441.631 69.761 L 426.219 88.845 L 448.385 99.352 L 423.855 99.202 L 429.46 123.083 L 414.284 103.811 L 399.108 123.083 L 404.713 99.202 L 380.183 99.352 L 402.349 88.845 L 386.937 69.761 L 408.972 80.539 Z" style="stroke: rgb(0, 0, 0); fill: rgb(133, 180, 234);" transform="matrix(-0.817456, 0.575992, -0.575992, -0.817456, 701.640564, 52.976109)" bx:shape="star 414.284 91.569 34.978 34.978 0.35 7 1@4f68602b"/>
  <path d="M 414.284 66.275 L 417.554 83.593 L 431.118 75.798 L 421.631 89.599 L 435.276 97.197 L 420.176 97.089 L 423.626 114.358 L 414.284 100.422 L 404.942 114.358 L 408.392 97.089 L 393.292 97.197 L 406.937 89.599 L 397.45 75.798 L 411.014 83.593 Z" style="stroke: rgb(0, 0, 0); fill: rgb(133, 180, 234);" transform="matrix(-0.817456, 0.575992, -0.575992, -0.817456, 768.125366, 44.771355)" bx:shape="star 414.284 91.569 21.532 25.294 0.35 7 1@4366d276"/>
  <path d="M 414.284 71.264 L 417.012 85.166 L 428.33 78.909 L 420.414 89.988 L 431.799 96.087 L 419.2 96 L 422.079 109.863 L 414.284 98.676 L 406.489 109.863 L 409.368 96 L 396.769 96.087 L 408.154 89.988 L 400.238 78.909 L 411.556 85.166 Z" style="stroke: rgb(0, 0, 0); fill: rgb(133, 180, 234);" transform="matrix(-0.817456, 0.575992, -0.575992, -0.817456, 822.699158, 70.766197)" bx:shape="star 414.284 91.569 17.965 20.305 0.35 7 1@e74da895"/>
</svg>