<?xml version="1.0" encoding="utf-8"?>
<svg viewBox="0 0 500 500" xmlns="http://www.w3.org/2000/svg" xmlns:bx="https://boxy-svg.com">
  <path d="M 148.488 175.873 L 148.488 176.373 Q 148.013 176.423 147.613 176.798 Q 147.213 177.173 146.863 178.123 L 142.763 188.873 L 142.338 188.873 L 137.738 177.798 Q 137.263 176.823 136.801 176.611 Q 136.338 176.398 136.038 176.398 L 136.038 175.873 Q 136.588 175.948 137.188 175.986 Q 137.788 176.023 138.488 176.023 Q 139.263 176.023 140.126 175.973 Q 140.988 175.923 141.738 175.873 L 141.738 176.398 Q 141.113 176.398 140.626 176.486 Q 140.138 176.573 140.013 177.011 Q 139.888 177.448 140.313 178.498 L 143.388 186.123 L 143.238 186.173 L 146.088 178.723 Q 146.413 177.898 146.351 177.411 Q 146.288 176.923 145.838 176.673 Q 145.388 176.423 144.488 176.373 L 144.488 175.873 Q 144.938 175.898 145.263 175.911 Q 145.588 175.923 145.901 175.936 Q 146.213 175.948 146.588 175.948 Q 147.163 175.948 147.626 175.923 Q 148.088 175.898 148.488 175.873 Z M 142.763 188.873 L 141.913 191.048 Q 141.663 191.673 141.401 192.098 Q 141.138 192.523 140.838 192.798 Q 140.438 193.173 139.888 193.311 Q 139.338 193.448 138.888 193.448 Q 138.413 193.448 138.026 193.273 Q 137.638 193.098 137.413 192.761 Q 137.188 192.423 137.188 191.948 Q 137.188 191.348 137.538 190.986 Q 137.888 190.623 138.513 190.623 Q 139.038 190.623 139.413 190.923 Q 139.788 191.223 139.788 191.798 Q 139.788 192.223 139.588 192.498 Q 139.388 192.773 139.113 192.923 Q 139.163 192.948 139.201 192.948 Q 139.238 192.948 139.263 192.948 Q 139.938 192.948 140.463 192.486 Q 140.988 192.023 141.388 190.998 L 142.288 188.673 Z" style="fill: rgb(51, 51, 51); white-space: pre;"/>
  <path d="M 162.185 171.048 Q 166.66 171.048 168.835 173.286 Q 171.01 175.523 171.01 179.698 Q 171.01 182.423 169.947 184.461 Q 168.885 186.498 166.86 187.623 Q 164.835 188.748 161.96 188.748 Q 161.585 188.748 160.96 188.723 Q 160.335 188.698 159.672 188.686 Q 159.01 188.673 158.46 188.673 Q 157.585 188.673 156.735 188.686 Q 155.885 188.698 155.36 188.748 L 155.36 188.248 Q 156.21 188.198 156.647 188.048 Q 157.085 187.898 157.235 187.448 Q 157.385 186.998 157.385 186.098 L 157.385 173.698 Q 157.385 172.773 157.235 172.336 Q 157.085 171.898 156.647 171.736 Q 156.21 171.573 155.36 171.548 L 155.36 171.048 Q 155.885 171.073 156.735 171.111 Q 157.585 171.148 158.41 171.123 Q 159.285 171.098 160.385 171.073 Q 161.485 171.048 162.185 171.048 Z M 161.56 171.498 Q 160.41 171.498 160.06 171.923 Q 159.71 172.348 159.71 173.648 L 159.71 186.148 Q 159.71 187.448 160.072 187.873 Q 160.435 188.298 161.585 188.298 Q 164.31 188.298 165.81 187.311 Q 167.31 186.323 167.91 184.423 Q 168.51 182.523 168.51 179.798 Q 168.51 176.998 167.847 175.161 Q 167.185 173.323 165.672 172.411 Q 164.16 171.498 161.56 171.498 Z" style="fill: rgb(51, 51, 51); white-space: pre;"/>
  <path d="M 179.18 175.523 Q 181.38 175.523 182.618 176.861 Q 183.855 178.198 183.855 181.023 L 175.03 181.023 L 175.005 180.548 L 181.455 180.548 Q 181.505 179.323 181.255 178.286 Q 181.005 177.248 180.468 176.623 Q 179.93 175.998 179.08 175.998 Q 177.93 175.998 177.043 177.148 Q 176.155 178.298 175.98 180.798 L 176.055 180.898 Q 176.005 181.273 175.98 181.723 Q 175.955 182.173 175.955 182.623 Q 175.955 184.323 176.505 185.548 Q 177.055 186.773 177.943 187.411 Q 178.83 188.048 179.78 188.048 Q 180.53 188.048 181.205 187.811 Q 181.88 187.573 182.455 187.023 Q 183.03 186.473 183.455 185.548 L 183.955 185.748 Q 183.68 186.573 183.055 187.348 Q 182.43 188.123 181.48 188.611 Q 180.53 189.098 179.28 189.098 Q 177.48 189.098 176.193 188.273 Q 174.905 187.448 174.218 185.986 Q 173.53 184.523 173.53 182.623 Q 173.53 180.423 174.23 178.836 Q 174.93 177.248 176.205 176.386 Q 177.48 175.523 179.18 175.523 Z" style="fill: rgb(51, 51, 51); white-space: pre;"/>
  <path d="M 190.236 175.523 Q 191.236 175.523 191.936 175.848 Q 192.636 176.173 192.961 176.448 Q 193.786 177.123 193.961 175.548 L 194.536 175.548 Q 194.486 176.248 194.461 177.211 Q 194.436 178.173 194.436 179.798 L 193.861 179.798 Q 193.711 178.873 193.349 177.998 Q 192.986 177.123 192.286 176.561 Q 191.586 175.998 190.461 175.998 Q 189.586 175.998 188.999 176.486 Q 188.411 176.973 188.411 177.923 Q 188.411 178.673 188.861 179.211 Q 189.311 179.748 190.036 180.211 Q 190.761 180.673 191.611 181.223 Q 192.561 181.823 193.336 182.448 Q 194.111 183.073 194.574 183.823 Q 195.036 184.573 195.036 185.598 Q 195.036 186.748 194.436 187.523 Q 193.836 188.298 192.874 188.698 Q 191.911 189.098 190.761 189.098 Q 190.211 189.098 189.724 189.011 Q 189.236 188.923 188.786 188.748 Q 188.536 188.623 188.274 188.448 Q 188.011 188.273 187.761 188.073 Q 187.511 187.873 187.311 188.086 Q 187.111 188.298 187.011 188.923 L 186.436 188.923 Q 186.486 188.123 186.511 186.973 Q 186.536 185.823 186.536 183.923 L 187.111 183.923 Q 187.286 185.323 187.611 186.373 Q 187.936 187.423 188.636 188.011 Q 189.336 188.598 190.586 188.598 Q 191.086 188.598 191.599 188.373 Q 192.111 188.148 192.461 187.623 Q 192.811 187.098 192.811 186.223 Q 192.811 185.123 192.011 184.423 Q 191.211 183.723 189.986 182.948 Q 189.086 182.373 188.299 181.798 Q 187.511 181.223 187.024 180.498 Q 186.536 179.773 186.536 178.748 Q 186.536 177.623 187.049 176.911 Q 187.561 176.198 188.411 175.861 Q 189.261 175.523 190.236 175.523 Z" style="fill: rgb(51, 51, 51); white-space: pre;"/>
  <path d="M 199.783 169.623 Q 200.433 169.623 200.908 170.098 Q 201.383 170.573 201.383 171.223 Q 201.383 171.873 200.908 172.348 Q 200.433 172.823 199.783 172.823 Q 199.133 172.823 198.658 172.348 Q 198.183 171.873 198.183 171.223 Q 198.183 170.573 198.658 170.098 Q 199.133 169.623 199.783 169.623 Z M 201.083 175.598 L 201.083 186.423 Q 201.083 187.473 201.521 187.848 Q 201.958 188.223 202.983 188.223 L 202.983 188.748 Q 202.558 188.723 201.696 188.686 Q 200.833 188.648 199.958 188.648 Q 199.108 188.648 198.233 188.686 Q 197.358 188.723 196.933 188.748 L 196.933 188.223 Q 197.958 188.223 198.396 187.848 Q 198.833 187.473 198.833 186.423 L 198.833 178.598 Q 198.833 177.473 198.433 176.936 Q 198.033 176.398 196.933 176.398 L 196.933 175.873 Q 197.733 175.948 198.483 175.948 Q 199.208 175.948 199.871 175.861 Q 200.533 175.773 201.083 175.598 Z" style="fill: rgb(51, 51, 51); white-space: pre;"/>
  <path d="M 208.861 193.448 Q 207.536 193.448 206.361 193.173 Q 205.186 192.898 204.474 192.311 Q 203.761 191.723 203.761 190.823 Q 203.761 189.948 204.461 189.323 Q 205.161 188.698 206.361 188.373 L 206.511 188.773 Q 205.961 188.948 205.636 189.473 Q 205.311 189.998 205.311 190.648 Q 205.311 191.798 206.374 192.411 Q 207.436 193.023 209.136 193.023 Q 210.261 193.023 211.336 192.736 Q 212.411 192.448 213.111 191.773 Q 213.811 191.098 213.811 189.998 Q 213.811 189.173 213.224 188.636 Q 212.636 188.098 210.911 188.098 L 209.061 188.098 Q 208.261 188.098 207.511 187.973 Q 206.761 187.848 206.286 187.448 Q 205.811 187.048 205.811 186.223 Q 205.811 185.373 206.511 184.586 Q 207.211 183.798 209.086 182.973 L 209.386 183.198 Q 208.536 183.648 207.911 184.111 Q 207.286 184.573 207.286 185.198 Q 207.286 185.998 208.486 185.998 L 211.611 185.998 Q 212.661 185.998 213.549 186.298 Q 214.436 186.598 214.986 187.248 Q 215.536 187.898 215.536 188.948 Q 215.536 190.123 214.786 191.148 Q 214.036 192.173 212.549 192.811 Q 211.061 193.448 208.861 193.448 Z M 208.986 183.423 Q 207.761 183.423 206.761 183.011 Q 205.761 182.598 205.186 181.723 Q 204.611 180.848 204.611 179.473 Q 204.611 178.098 205.186 177.223 Q 205.761 176.348 206.761 175.936 Q 207.761 175.523 208.986 175.523 Q 210.236 175.523 211.224 175.936 Q 212.211 176.348 212.786 177.223 Q 213.361 178.098 213.361 179.473 Q 213.361 180.848 212.786 181.723 Q 212.211 182.598 211.224 183.011 Q 210.236 183.423 208.986 183.423 Z M 208.986 182.973 Q 209.936 182.973 210.474 182.223 Q 211.011 181.473 211.011 179.473 Q 211.011 177.473 210.474 176.723 Q 209.936 175.973 208.986 175.973 Q 208.061 175.973 207.511 176.723 Q 206.961 177.473 206.961 179.473 Q 206.961 181.473 207.511 182.223 Q 208.061 182.973 208.986 182.973 Z M 212.586 177.598 L 212.136 177.423 Q 212.486 176.573 213.336 175.923 Q 214.186 175.273 215.111 175.273 Q 215.761 175.273 216.161 175.636 Q 216.561 175.998 216.561 176.723 Q 216.561 177.498 216.149 177.811 Q 215.736 178.123 215.311 178.123 Q 214.936 178.123 214.611 177.861 Q 214.286 177.598 214.236 177.023 Q 214.186 176.448 214.586 175.548 L 214.911 175.623 Q 213.861 176.023 213.411 176.461 Q 212.961 176.898 212.586 177.598 Z" style="fill: rgb(51, 51, 51); white-space: pre;"/>
  <path d="M 225.857 175.523 Q 226.807 175.523 227.444 175.773 Q 228.082 176.023 228.507 176.473 Q 228.982 176.973 229.182 177.723 Q 229.382 178.473 229.382 179.748 L 229.382 186.423 Q 229.382 187.473 229.819 187.848 Q 230.257 188.223 231.282 188.223 L 231.282 188.748 Q 230.857 188.723 229.982 188.686 Q 229.107 188.648 228.282 188.648 Q 227.457 188.648 226.669 188.686 Q 225.882 188.723 225.482 188.748 L 225.482 188.223 Q 226.382 188.223 226.757 187.848 Q 227.132 187.473 227.132 186.423 L 227.132 179.198 Q 227.132 178.423 227.007 177.773 Q 226.882 177.123 226.444 176.723 Q 226.007 176.323 225.107 176.323 Q 224.057 176.323 223.269 176.923 Q 222.482 177.523 222.044 178.561 Q 221.607 179.598 221.607 180.873 L 221.607 186.423 Q 221.607 187.473 221.982 187.848 Q 222.357 188.223 223.257 188.223 L 223.257 188.748 Q 222.857 188.723 222.069 188.686 Q 221.282 188.648 220.457 188.648 Q 219.632 188.648 218.757 188.686 Q 217.882 188.723 217.457 188.748 L 217.457 188.223 Q 218.482 188.223 218.919 187.848 Q 219.357 187.473 219.357 186.423 L 219.357 178.598 Q 219.357 177.473 218.957 176.936 Q 218.557 176.398 217.457 176.398 L 217.457 175.873 Q 218.257 175.948 219.007 175.948 Q 219.732 175.948 220.394 175.861 Q 221.057 175.773 221.607 175.598 L 221.607 178.548 Q 222.257 176.848 223.419 176.186 Q 224.582 175.523 225.857 175.523 Z" style="fill: rgb(51, 51, 51); white-space: pre;"/>
  <path d="M 72.184 159.856 Q 74.473 159.965 78.179 160.074 Q 81.885 160.183 85.482 160.183 Q 90.605 160.183 95.292 160.074 Q 99.979 159.965 101.941 159.965 Q 113.386 159.965 119.163 164.761 Q 124.94 169.557 124.94 177.078 Q 124.94 180.893 123.36 184.544 Q 121.779 188.196 118.128 191.193 Q 114.476 194.191 108.372 196.044 L 108.372 196.262 Q 116.983 197.352 121.834 200.349 Q 126.684 203.347 128.646 207.38 Q 130.608 211.413 130.608 215.882 Q 130.608 222.095 127.502 226.836 Q 124.395 231.578 118.509 234.303 Q 112.623 237.028 104.448 237.028 Q 102.05 237.028 97.254 236.864 Q 92.458 236.701 85.7 236.701 Q 81.885 236.701 78.179 236.755 Q 74.473 236.81 72.184 237.028 L 72.184 234.848 Q 75.89 234.63 77.798 233.976 Q 79.705 233.322 80.359 231.36 Q 81.013 229.398 81.013 225.474 L 81.013 171.41 Q 81.013 167.377 80.359 165.469 Q 79.705 163.562 77.798 162.853 Q 75.89 162.145 72.184 162.036 Z M 99.216 162.036 Q 94.202 162.036 92.676 163.889 Q 91.15 165.742 91.15 171.41 L 91.15 225.474 Q 91.15 229.289 91.804 231.251 Q 92.458 233.213 94.202 233.867 Q 95.946 234.521 99.325 234.521 Q 110.007 234.521 114.858 229.561 Q 119.708 224.602 119.708 215.446 Q 119.708 207.053 115.185 202.475 Q 110.661 197.897 100.306 197.897 L 89.079 197.897 Q 89.079 197.897 89.079 196.97 Q 89.079 196.044 89.079 196.044 L 98.453 196.044 Q 104.884 196.044 108.372 193.591 Q 111.86 191.139 113.168 187.051 Q 114.476 182.964 114.476 178.277 Q 114.476 170.211 110.934 166.123 Q 107.391 162.036 99.216 162.036 Z" style="fill: rgb(51, 51, 51); white-space: pre;"/>
  <path d="M 148.126 208.818 Q 151.006 208.818 153.301 210.078 Q 155.596 211.338 156.969 214.038 Q 158.341 216.738 158.341 221.058 Q 158.341 225.378 156.969 228.056 Q 155.596 230.733 153.301 231.993 Q 151.006 233.253 148.126 233.253 Q 145.291 233.253 142.974 231.993 Q 140.656 230.733 139.284 228.056 Q 137.911 225.378 137.911 221.058 Q 137.911 216.738 139.284 214.038 Q 140.656 211.338 142.974 210.078 Q 145.291 208.818 148.126 208.818 Z M 148.126 209.718 Q 145.561 209.718 143.919 212.373 Q 142.276 215.028 142.276 221.058 Q 142.276 227.088 143.919 229.721 Q 145.561 232.353 148.126 232.353 Q 150.691 232.353 152.334 229.721 Q 153.976 227.088 153.976 221.058 Q 153.976 215.028 152.334 212.373 Q 150.691 209.718 148.126 209.718 Z" style="fill: rgb(51, 51, 51); white-space: pre;"/>
  <path d="M 172.782 208.818 Q 175.662 208.818 177.957 210.078 Q 180.252 211.338 181.625 214.038 Q 182.997 216.738 182.997 221.058 Q 182.997 225.378 181.625 228.056 Q 180.252 230.733 177.957 231.993 Q 175.662 233.253 172.782 233.253 Q 169.947 233.253 167.63 231.993 Q 165.312 230.733 163.94 228.056 Q 162.567 225.378 162.567 221.058 Q 162.567 216.738 163.94 214.038 Q 165.312 211.338 167.63 210.078 Q 169.947 208.818 172.782 208.818 Z M 172.782 209.718 Q 170.217 209.718 168.575 212.373 Q 166.932 215.028 166.932 221.058 Q 166.932 227.088 168.575 229.721 Q 170.217 232.353 172.782 232.353 Q 175.347 232.353 176.99 229.721 Q 178.632 227.088 178.632 221.058 Q 178.632 215.028 176.99 212.373 Q 175.347 209.718 172.782 209.718 Z" style="fill: rgb(51, 51, 51); white-space: pre;"/>
  <path d="M 193.033 197.343 L 193.033 228.438 Q 193.033 230.328 193.708 231.003 Q 194.383 231.678 196.003 231.678 L 196.003 232.623 Q 195.283 232.578 193.866 232.511 Q 192.448 232.443 191.008 232.443 Q 189.478 232.443 187.903 232.511 Q 186.328 232.578 185.563 232.623 L 185.563 231.678 Q 187.408 231.678 188.196 231.003 Q 188.983 230.328 188.983 228.438 L 188.983 202.743 Q 188.983 200.718 188.263 199.751 Q 187.543 198.783 185.563 198.783 L 185.563 197.838 Q 187.003 197.973 188.353 197.973 Q 189.658 197.973 190.851 197.816 Q 192.043 197.658 193.033 197.343 Z M 207.343 209.448 L 207.343 210.348 Q 206.218 210.438 205.228 210.956 Q 204.238 211.473 203.293 212.463 L 196.948 219.123 L 197.578 217.863 L 205.948 229.338 Q 206.713 230.373 207.411 230.958 Q 208.108 231.543 209.098 231.678 L 209.098 232.623 Q 208.603 232.578 207.546 232.511 Q 206.488 232.443 205.453 232.443 Q 204.058 232.443 202.618 232.511 Q 201.178 232.578 200.458 232.623 L 200.458 231.678 Q 201.358 231.678 201.718 231.228 Q 202.078 230.778 201.583 230.148 L 196.408 222.588 Q 195.553 221.373 194.856 221.013 Q 194.158 220.653 192.853 220.608 L 192.853 219.708 Q 194.293 219.528 195.193 219.101 Q 196.093 218.673 196.903 217.818 L 200.233 214.353 Q 201.673 212.868 201.673 211.991 Q 201.673 211.113 200.751 210.731 Q 199.828 210.348 198.343 210.348 L 198.343 209.448 Q 199.513 209.493 200.976 209.561 Q 202.438 209.628 203.428 209.628 Q 204.193 209.628 204.913 209.606 Q 205.633 209.583 206.263 209.538 Q 206.893 209.493 207.343 209.448 Z" style="fill: rgb(51, 51, 51); white-space: pre;"/>
  <path d="M 216.432 197.343 L 216.432 228.438 Q 216.432 230.328 217.107 231.003 Q 217.782 231.678 219.402 231.678 L 219.402 232.623 Q 218.682 232.578 217.264 232.511 Q 215.847 232.443 214.407 232.443 Q 212.877 232.443 211.302 232.511 Q 209.727 232.578 208.962 232.623 L 208.962 231.678 Q 210.807 231.678 211.594 231.003 Q 212.382 230.328 212.382 228.438 L 212.382 202.743 Q 212.382 200.718 211.662 199.751 Q 210.942 198.783 208.962 198.783 L 208.962 197.838 Q 210.402 197.973 211.752 197.973 Q 213.057 197.973 214.249 197.816 Q 215.442 197.658 216.432 197.343 Z M 230.742 209.448 L 230.742 210.348 Q 229.617 210.438 228.627 210.956 Q 227.637 211.473 226.692 212.463 L 220.347 219.123 L 220.977 217.863 L 229.347 229.338 Q 230.112 230.373 230.809 230.958 Q 231.507 231.543 232.497 231.678 L 232.497 232.623 Q 232.002 232.578 230.944 232.511 Q 229.887 232.443 228.852 232.443 Q 227.457 232.443 226.017 232.511 Q 224.577 232.578 223.857 232.623 L 223.857 231.678 Q 224.757 231.678 225.117 231.228 Q 225.477 230.778 224.982 230.148 L 219.807 222.588 Q 218.952 221.373 218.254 221.013 Q 217.557 220.653 216.252 220.608 L 216.252 219.708 Q 217.692 219.528 218.592 219.101 Q 219.492 218.673 220.302 217.818 L 223.632 214.353 Q 225.072 212.868 225.072 211.991 Q 225.072 211.113 224.149 210.731 Q 223.227 210.348 221.742 210.348 L 221.742 209.448 Q 222.912 209.493 224.374 209.561 Q 225.837 209.628 226.827 209.628 Q 227.592 209.628 228.312 209.606 Q 229.032 209.583 229.662 209.538 Q 230.292 209.493 230.742 209.448 Z" style="fill: rgb(51, 51, 51); white-space: pre;"/>
  <path d="M 243.794 208.818 Q 247.754 208.818 249.981 211.226 Q 252.209 213.633 252.209 218.718 L 236.324 218.718 L 236.279 217.863 L 247.889 217.863 Q 247.979 215.658 247.529 213.791 Q 247.079 211.923 246.111 210.798 Q 245.144 209.673 243.614 209.673 Q 241.544 209.673 239.946 211.743 Q 238.349 213.813 238.034 218.313 L 238.169 218.493 Q 238.079 219.168 238.034 219.978 Q 237.989 220.788 237.989 221.598 Q 237.989 224.658 238.979 226.863 Q 239.969 229.068 241.566 230.216 Q 243.164 231.363 244.874 231.363 Q 246.224 231.363 247.439 230.936 Q 248.654 230.508 249.689 229.518 Q 250.724 228.528 251.489 226.863 L 252.389 227.223 Q 251.894 228.708 250.769 230.103 Q 249.644 231.498 247.934 232.376 Q 246.224 233.253 243.974 233.253 Q 240.734 233.253 238.416 231.768 Q 236.099 230.283 234.861 227.651 Q 233.624 225.018 233.624 221.598 Q 233.624 217.638 234.884 214.781 Q 236.144 211.923 238.439 210.371 Q 240.734 208.818 243.794 208.818 Z" style="fill: rgb(51, 51, 51); white-space: pre;"/>
  <path d="M 266.559 208.818 Q 270.519 208.818 272.747 211.226 Q 274.974 213.633 274.974 218.718 L 259.089 218.718 L 259.044 217.863 L 270.654 217.863 Q 270.744 215.658 270.294 213.791 Q 269.844 211.923 268.877 210.798 Q 267.909 209.673 266.379 209.673 Q 264.309 209.673 262.712 211.743 Q 261.114 213.813 260.799 218.313 L 260.934 218.493 Q 260.844 219.168 260.799 219.978 Q 260.754 220.788 260.754 221.598 Q 260.754 224.658 261.744 226.863 Q 262.734 229.068 264.332 230.216 Q 265.929 231.363 267.639 231.363 Q 268.989 231.363 270.204 230.936 Q 271.419 230.508 272.454 229.518 Q 273.489 228.528 274.254 226.863 L 275.154 227.223 Q 274.659 228.708 273.534 230.103 Q 272.409 231.498 270.699 232.376 Q 268.989 233.253 266.739 233.253 Q 263.499 233.253 261.182 231.768 Q 258.864 230.283 257.627 227.651 Q 256.389 225.018 256.389 221.598 Q 256.389 217.638 257.649 214.781 Q 258.909 211.923 261.204 210.371 Q 263.499 208.818 266.559 208.818 Z" style="fill: rgb(51, 51, 51); white-space: pre;"/>
  <path d="M 285.553 208.953 L 285.553 236.583 Q 285.553 238.518 286.7 239.171 Q 287.848 239.823 289.873 239.823 L 289.873 240.768 Q 288.883 240.723 287.128 240.656 Q 285.373 240.588 283.393 240.588 Q 281.998 240.588 280.625 240.656 Q 279.253 240.723 278.533 240.768 L 278.533 239.823 Q 280.153 239.823 280.828 239.238 Q 281.503 238.653 281.503 237.033 L 281.503 214.353 Q 281.503 212.328 280.783 211.361 Q 280.063 210.393 278.083 210.393 L 278.083 209.448 Q 279.523 209.583 280.873 209.583 Q 282.178 209.583 283.37 209.426 Q 284.563 209.268 285.553 208.953 Z M 292.753 208.818 Q 295.138 208.818 297.028 210.101 Q 298.918 211.383 300.02 213.858 Q 301.123 216.333 301.123 219.978 Q 301.123 222.408 300.538 224.771 Q 299.953 227.133 298.715 229.046 Q 297.478 230.958 295.52 232.106 Q 293.563 233.253 290.818 233.253 Q 288.703 233.253 287.15 232.263 Q 285.598 231.273 285.058 229.878 L 285.508 229.248 Q 286.138 230.508 287.33 231.363 Q 288.523 232.218 290.323 232.218 Q 292.843 232.218 294.238 230.643 Q 295.633 229.068 296.195 226.436 Q 296.758 223.803 296.758 220.608 Q 296.758 217.008 296.173 214.713 Q 295.588 212.418 294.418 211.293 Q 293.248 210.168 291.538 210.168 Q 289.333 210.168 287.533 211.991 Q 285.733 213.813 285.238 217.503 L 284.698 216.873 Q 285.193 213.048 287.42 210.933 Q 289.648 208.818 292.753 208.818 Z" style="fill: rgb(51, 51, 51); white-space: pre;"/>
  <path d="M 309.669 198.198 Q 310.839 198.198 311.694 199.053 Q 312.549 199.908 312.549 201.078 Q 312.549 202.248 311.694 203.103 Q 310.839 203.958 309.669 203.958 Q 308.499 203.958 307.644 203.103 Q 306.789 202.248 306.789 201.078 Q 306.789 199.908 307.644 199.053 Q 308.499 198.198 309.669 198.198 Z M 312.009 208.953 L 312.009 228.438 Q 312.009 230.328 312.796 231.003 Q 313.584 231.678 315.429 231.678 L 315.429 232.623 Q 314.664 232.578 313.111 232.511 Q 311.559 232.443 309.984 232.443 Q 308.454 232.443 306.879 232.511 Q 305.304 232.578 304.539 232.623 L 304.539 231.678 Q 306.384 231.678 307.171 231.003 Q 307.959 230.328 307.959 228.438 L 307.959 214.353 Q 307.959 212.328 307.239 211.361 Q 306.519 210.393 304.539 210.393 L 304.539 209.448 Q 305.979 209.583 307.329 209.583 Q 308.634 209.583 309.826 209.426 Q 311.019 209.268 312.009 208.953 Z" style="fill: rgb(51, 51, 51); white-space: pre;"/>
  <path d="M 332.846 208.818 Q 334.556 208.818 335.704 209.268 Q 336.851 209.718 337.616 210.528 Q 338.471 211.428 338.831 212.778 Q 339.191 214.128 339.191 216.423 L 339.191 228.438 Q 339.191 230.328 339.979 231.003 Q 340.766 231.678 342.611 231.678 L 342.611 232.623 Q 341.846 232.578 340.271 232.511 Q 338.696 232.443 337.211 232.443 Q 335.726 232.443 334.309 232.511 Q 332.891 232.578 332.171 232.623 L 332.171 231.678 Q 333.791 231.678 334.466 231.003 Q 335.141 230.328 335.141 228.438 L 335.141 215.433 Q 335.141 214.038 334.916 212.868 Q 334.691 211.698 333.904 210.978 Q 333.116 210.258 331.496 210.258 Q 329.606 210.258 328.189 211.338 Q 326.771 212.418 325.984 214.286 Q 325.196 216.153 325.196 218.448 L 325.196 228.438 Q 325.196 230.328 325.871 231.003 Q 326.546 231.678 328.166 231.678 L 328.166 232.623 Q 327.446 232.578 326.029 232.511 Q 324.611 232.443 323.126 232.443 Q 321.641 232.443 320.066 232.511 Q 318.491 232.578 317.726 232.623 L 317.726 231.678 Q 319.571 231.678 320.359 231.003 Q 321.146 230.328 321.146 228.438 L 321.146 214.353 Q 321.146 212.328 320.426 211.361 Q 319.706 210.393 317.726 210.393 L 317.726 209.448 Q 319.166 209.583 320.516 209.583 Q 321.821 209.583 323.014 209.426 Q 324.206 209.268 325.196 208.953 L 325.196 214.263 Q 326.366 211.203 328.459 210.011 Q 330.551 208.818 332.846 208.818 Z" style="fill: rgb(51, 51, 51); white-space: pre;"/>
  <path d="M 352.42 241.083 Q 350.035 241.083 347.92 240.588 Q 345.805 240.093 344.523 239.036 Q 343.24 237.978 343.24 236.358 Q 343.24 234.783 344.5 233.658 Q 345.76 232.533 347.92 231.948 L 348.19 232.668 Q 347.2 232.983 346.615 233.928 Q 346.03 234.873 346.03 236.043 Q 346.03 238.113 347.943 239.216 Q 349.855 240.318 352.915 240.318 Q 354.94 240.318 356.875 239.801 Q 358.81 239.283 360.07 238.068 Q 361.33 236.853 361.33 234.873 Q 361.33 233.388 360.273 232.421 Q 359.215 231.453 356.11 231.453 L 352.78 231.453 Q 351.34 231.453 349.99 231.228 Q 348.64 231.003 347.785 230.283 Q 346.93 229.563 346.93 228.078 Q 346.93 226.548 348.19 225.131 Q 349.45 223.713 352.825 222.228 L 353.365 222.633 Q 351.835 223.443 350.71 224.276 Q 349.585 225.108 349.585 226.233 Q 349.585 227.673 351.745 227.673 L 357.37 227.673 Q 359.26 227.673 360.858 228.213 Q 362.455 228.753 363.445 229.923 Q 364.435 231.093 364.435 232.983 Q 364.435 235.098 363.085 236.943 Q 361.735 238.788 359.058 239.936 Q 356.38 241.083 352.42 241.083 Z M 352.645 223.038 Q 350.44 223.038 348.64 222.296 Q 346.84 221.553 345.805 219.978 Q 344.77 218.403 344.77 215.928 Q 344.77 213.453 345.805 211.878 Q 346.84 210.303 348.64 209.561 Q 350.44 208.818 352.645 208.818 Q 354.895 208.818 356.673 209.561 Q 358.45 210.303 359.485 211.878 Q 360.52 213.453 360.52 215.928 Q 360.52 218.403 359.485 219.978 Q 358.45 221.553 356.673 222.296 Q 354.895 223.038 352.645 223.038 Z M 352.645 222.228 Q 354.355 222.228 355.323 220.878 Q 356.29 219.528 356.29 215.928 Q 356.29 212.328 355.323 210.978 Q 354.355 209.628 352.645 209.628 Q 350.98 209.628 349.99 210.978 Q 349 212.328 349 215.928 Q 349 219.528 349.99 220.878 Q 350.98 222.228 352.645 222.228 Z M 359.125 212.553 L 358.315 212.238 Q 358.945 210.708 360.475 209.538 Q 362.005 208.368 363.67 208.368 Q 364.84 208.368 365.56 209.021 Q 366.28 209.673 366.28 210.978 Q 366.28 212.373 365.538 212.936 Q 364.795 213.498 364.03 213.498 Q 363.355 213.498 362.77 213.026 Q 362.185 212.553 362.095 211.518 Q 362.005 210.483 362.725 208.863 L 363.31 208.998 Q 361.42 209.718 360.61 210.506 Q 359.8 211.293 359.125 212.553 Z" style="fill: rgb(51, 51, 51); white-space: pre;"/>
  <path d="M 414.284 69.978 L 417.562794334 84.760513411 L 431.164523538 78.107231688 L 421.651383993 89.88744268 L 435.333668552 96.373449485 L 420.192183238 96.280618909 L 423.651983811 111.021818827 L 414.284 99.12585 L 404.916016189 111.021818827 L 408.375816762 96.280618909 L 393.234331448 96.373449485 L 406.916616007 89.88744268 L 397.403476462 78.107231688 L 411.005205666 84.760513411 Z" style="stroke: rgb(0, 0, 0); fill: rgb(133, 180, 234);" transform="matrix(-0.817456, 0.575992, -0.575992, -0.817456, 650.507385, 14.489634)" bx:shape="star 414.284 91.569 21.591 21.591 0.35 7 1@f0a5d0cd"/>
  <path d="M 414.284 75.956 L 416.302362072 86.645610573 L 424.675322233 81.834453724 L 418.819218408 90.35302323 L 427.241766881 95.043219342 L 417.920962782 94.976091197 L 420.050748777 105.635826935 L 414.284 97.03355 L 408.517251223 105.635826935 L 410.647037218 94.976091197 L 401.326233119 95.043219342 L 409.748781592 90.35302323 L 403.892677767 81.834453724 L 412.265637928 86.645610573 Z" style="stroke: rgb(0, 0, 0); fill: rgb(133, 180, 234);" transform="matrix(-0.817456, 0.575992, -0.575992, -0.817456, 691.546021, 9.425144)" bx:shape="star 414.284 91.569 13.291 15.613 0.35 7 1@c868d30e"/>
  <path d="M 414.284 79.035 L 415.967967874 87.616539673 L 422.953729309 83.754178824 L 418.067841466 90.592822915 L 425.094975618 94.358077386 L 417.318405258 94.304187412 L 419.095336783 102.86174379 L 414.284 95.9559 L 409.472663217 102.86174379 L 411.249594742 94.304187412 L 403.473024382 94.358077386 L 410.500158534 90.592822915 L 405.614270691 83.754178824 L 412.600032126 87.616539673 Z" style="stroke: rgb(0, 0, 0); fill: rgb(133, 180, 234);" transform="matrix(-0.817456, 0.575992, -0.575992, -0.817456, 725.232361, 25.4708)" bx:shape="star 414.284 91.569 11.089 12.534 0.35 7 1@00bbe196"/>
</svg>